Coordinates
version=1
nRows=35
nColumns=33
inDegrees=yes

Units are S.I. units (second, meters, Newtons, ...)
Angles are in degrees.

endheader
time	ground_thorax_rot_x	ground_thorax_rot_y	ground_thorax_rot_z	ground_thorax_tx	ground_thorax_ty	ground_thorax_tz	clav_prot_r	clav_elev_r	scapula_abduction_r	scapula_elevation_r	scapula_upward_rot_r	scapula_winging_r	shoulder_elv_r	plane_of_elev_r	axial_rot_r	elbow_flexion_r	pro_sup_r	wrist_flex_r	wrist_dev_r	clav_prot_l	clav_elev_l	scapula_abduction_l	scapula_elevation_l	scapula_upward_rot_l	scapula_winging_l	shoulder_elv_l	plane_of_elev_l	axial_rot_l	elbow_flexion_l	pro_sup_l	wrist_flex_l	wrist_dev_l	
0.8900	-4.407995	-10.194298	90.000000	-0.010471	0.971321	0.022135	29.313025	19.814195	45.000000	45.000000	-44.878444	-5.814757	29.785396	-82.461067	45.188298	66.818413	32.337715	42.356552	-4.496913	31.891788	27.794629	-45.000000	-45.000000	-31.691813	7.395391	-63.155621	-90.000000	59.137142	66.984732	45.260127	-16.774845	-25.000000	
0.9000	-4.544286	-10.175448	90.000000	-0.010395	0.970993	0.022204	29.307993	19.806203	45.000000	45.000000	-44.896137	-5.813512	29.333537	-82.650087	45.238015	66.952703	33.323877	42.776756	-4.962325	31.867922	27.735360	-45.000000	-45.000000	-31.807742	7.383683	-62.649567	-90.000000	58.721745	66.517374	45.036794	-16.589824	-25.000000	
0.9100	-4.650679	-10.150757	90.000000	-0.010301	0.970667	0.022270	29.313444	19.815966	45.000000	45.000000	-44.876051	-5.817727	28.783131	-82.842419	45.140185	67.066488	34.635278	43.305294	-5.618113	31.832626	27.648466	-45.000000	-45.000000	-31.977970	7.366125	-61.858679	-90.000000	58.048048	66.045637	44.749828	-16.353367	-25.000000	
0.9200	-4.735014	-10.120526	90.000000	-0.010190	0.970337	0.022309	29.317631	19.823509	45.000000	45.000000	-44.860560	-5.821186	28.100389	-82.994502	44.854301	67.151959	36.229868	43.927903	-6.443447	31.787992	27.539814	-45.000000	-45.000000	-32.190859	7.343213	-60.687196	-90.000000	57.054889	65.586447	44.425208	-16.083848	-25.000000	
0.9300	-4.781375	-10.076954	90.000000	-0.010073	0.970038	0.022338	29.333117	19.850096	45.000000	45.000000	-44.804685	-5.830176	27.144598	-83.129031	44.253060	67.193810	37.995134	44.562167	-7.399787	31.716091	27.366120	-45.000000	-45.000000	-32.531573	7.305346	-58.864635	-90.000000	55.543686	65.135386	44.157313	-15.776997	-25.000000	
0.9400	-4.790705	-10.019281	90.000000	-0.009958	0.969780	0.022359	29.357085	19.890791	45.000000	45.000000	-44.718835	-5.843220	25.886865	-83.238714	43.309578	67.181181	39.726186	45.161765	-8.399426	31.611317	27.115114	-45.000000	-45.000000	-33.024344	7.249442	-56.323755	-90.000000	53.457138	64.685197	43.986757	-15.557269	-25.000000	
0.9500	-4.768591	-9.950092	90.000000	-0.009839	0.969546	0.022380	29.388281	19.943537	45.000000	45.000000	-44.607418	-5.859685	24.382846	-83.327831	42.086124	67.127413	41.227310	45.668447	-9.298401	31.483284	26.810408	-45.000000	-45.000000	-33.623167	7.180820	-53.217007	-90.000000	50.901781	64.246401	43.979896	-15.434428	-25.000000	
0.9600	-4.740895	-9.883463	90.000000	-0.009700	0.969278	0.022396	29.416469	19.991095	45.000000	45.000000	-44.507002	-5.874630	22.820090	-83.377129	40.789622	67.053909	42.300642	46.053001	-9.975403	31.350550	26.498630	-45.000000	-45.000000	-34.236951	7.109840	-49.994702	-90.000000	48.230515	63.851881	44.110877	-15.482679	-25.000000	
0.9700	-4.710652	-9.818535	90.000000	-0.009542	0.968965	0.022411	29.441033	20.032546	45.000000	45.000000	-44.419556	-5.887784	21.235232	-83.389296	39.434153	66.974156	43.133558	46.372596	-10.522117	31.213403	26.183959	-45.000000	-45.000000	-34.858940	7.036848	-46.754692	-90.000000	45.529401	63.526386	44.329976	-15.618870	-25.000000	
0.9800	-4.694710	-9.763416	90.000000	-0.009366	0.968589	0.022422	29.452287	20.051548	45.000000	45.000000	-44.379565	-5.894217	19.717773	-83.339585	38.114483	66.884550	43.726274	46.651961	-10.974349	31.073983	25.875166	-45.000000	-45.000000	-35.472818	6.963297	-43.716047	-90.000000	42.985799	63.283256	44.557989	-15.915828	-25.000000	
0.9900	-4.666446	-9.677299	90.000000	-0.009226	0.968222	0.022474	29.470511	20.082605	45.000000	45.000000	-44.314273	-5.904304	17.902900	-83.287230	36.448892	66.766192	44.365943	46.985145	-11.569311	30.877922	25.460103	-45.000000	-45.000000	-36.304816	6.859928	-40.187111	-90.000000	40.077457	63.105540	44.809466	-16.406404	-25.000000	
1.0000	-4.635207	-9.569294	90.000000	-0.009114	0.967860	0.022559	29.493680	20.122106	45.000000	45.000000	-44.231138	-5.916859	15.872919	-83.228115	34.539586	66.627183	44.964200	47.320038	-12.263365	30.635084	24.956113	-45.000000	-45.000000	-37.318748	6.731922	-36.347182	-90.000000	36.967502	62.991047	45.069938	-17.085908	-25.000000	
1.0100	-4.582307	-9.430972	90.000000	-0.009035	0.967548	0.022677	29.531306	20.186093	45.000000	45.000000	-44.096366	-5.936629	13.576077	-83.195631	32.305506	66.473999	45.705012	47.694827	-13.134192	30.343432	24.351761	-45.000000	-45.000000	-38.535241	6.577758	-32.014927	-90.000000	33.506388	62.906956	45.331280	-17.859050	-25.000000	
1.0200	-4.538249	-9.304955	90.000000	-0.008930	0.967254	0.022777	29.555804	20.227461	45.000000	45.000000	-44.009020	-5.949130	11.451911	-83.136083	30.177913	66.337436	46.291365	48.004651	-13.886389	30.075936	23.795497	-45.000000	-45.000000	-39.654114	6.436276	-28.011618	-90.000000	30.296283	62.824373	45.572713	-18.653167	-25.000000	
1.0300	-4.497562	-9.186499	90.000000	-0.008792	0.966972	0.022858	29.572853	20.256026	45.000000	45.000000	-43.948659	-5.957599	9.535833	-83.075777	28.186074	66.233103	46.779438	48.303584	-14.499352	29.840583	23.306514	-45.000000	-45.000000	-40.637916	6.311536	-24.377460	-90.000000	27.344157	62.732198	45.796769	-19.450678	-25.000000	
1.0400	-4.486566	-9.113554	90.000000	-0.008563	0.966633	0.022872	29.567458	20.246323	45.000000	45.000000	-43.968831	-5.954380	8.221091	-82.975090	26.743933	66.194072	47.048688	48.542641	-14.807882	29.693481	23.002445	-45.000000	-45.000000	-41.250320	6.233737	-21.878336	-90.000000	25.246066	62.657921	45.957040	-20.125378	-25.000000	
1.0500	-4.494215	-9.061393	90.000000	-0.008280	0.966261	0.022844	29.555231	20.225148	45.000000	45.000000	-44.013381	-5.947858	7.286508	-82.864702	25.659520	66.190547	47.182643	48.839002	-14.902171	29.593263	22.803186	-45.000000	-45.000000	-41.655066	6.180791	-20.081941	-90.000000	23.682179	62.604179	46.075089	-20.881123	-25.000000	
1.0600	-4.518111	-9.026055	90.000000	-0.007956	0.965883	0.022776	29.534414	20.189452	45.000000	45.000000	-44.088505	-5.936843	6.665142	-82.748468	24.869823	66.222296	47.201661	49.164671	-14.836627	29.528988	22.685315	-45.000000	-45.000000	-41.898868	6.146920	-18.858808	-90.000000	22.572069	62.578613	46.156349	-21.678760	-25.000000	
1.0700	-4.532550	-8.967250	90.000000	-0.007653	0.965562	0.022715	29.529470	20.180854	45.000000	45.000000	-44.106718	-5.934075	5.952704	-82.681934	24.003472	66.257528	47.256235	49.569464	-14.830616	29.436947	22.515531	-45.000000	-45.000000	-42.249697	6.097850	-17.427728	-90.000000	21.348426	62.592353	46.240082	-22.615995	-25.000000	
1.0800	-4.546431	-8.905727	90.000000	-0.007350	0.965279	0.022645	29.534516	20.189185	45.000000	45.000000	-44.089049	-5.936189	5.312999	-82.649348	23.241236	66.328500	47.304150	49.927888	-14.870306	29.346243	22.347862	-45.000000	-45.000000	-42.595947	6.049409	-16.112088	-90.000000	20.285878	62.679879	46.302617	-23.453544	-24.999999	
1.0900	-4.566275	-8.844498	90.000000	-0.007047	0.965047	0.022566	29.546430	20.209301	45.000000	45.000000	-44.046599	-5.941768	4.765590	-82.635285	22.614348	66.432559	47.342796	50.236252	-14.947750	29.263476	22.194656	-45.000000	-45.000000	-42.912263	6.004941	-14.940412	-90.000000	19.400678	62.847187	46.337801	-24.182913	-24.999999	
1.1000	-4.598227	-8.798293	90.000000	-0.006733	0.964862	0.022466	29.553479	20.221147	45.000000	45.000000	-44.021298	-5.944494	4.425440	-82.621548	22.218554	66.600944	47.323131	50.392266	-15.034616	29.211702	22.099111	-45.000000	-45.000000	-43.109528	5.976787	-14.126139	-90.000000	18.854911	63.111227	46.328655	-24.636986	-24.999998	
1.1100	-4.641097	-8.763992	90.000000	-0.006415	0.964715	0.022358	29.555746	20.224915	45.000000	45.000000	-44.013053	-5.944747	4.269408	-82.607722	22.028037	66.839422	47.242917	50.420711	-15.147164	29.178210	22.038041	-45.000000	-45.000000	-43.236016	5.957995	-13.569889	-89.999999	18.580416	63.486059	46.264558	-24.887264	-24.999997	
1.1200	-4.688922	-8.741356	90.000000	-0.006098	0.964603	0.022242	29.555529	20.224514	45.000000	45.000000	-44.013489	-5.943572	4.275099	-82.589925	22.010862	67.147758	47.105464	50.338253	-15.284672	29.158949	22.003936	-45.000000	-45.000000	-43.307069	5.946674	-13.219173	-89.999999	18.513969	63.974589	46.141038	-24.969237	-24.999995	
1.1300	-4.735119	-8.714119	90.000000	-0.005804	0.964544	0.022137	29.556590	20.226331	45.000000	45.000000	-44.009381	-5.943195	4.308426	-82.571797	22.021434	67.508119	46.933090	50.235265	-15.454160	29.130094	21.952817	-45.000000	-45.000000	-43.413705	5.929976	-12.778978	-89.999998	18.397022	64.557460	45.955835	-25.076404	-24.999991	
1.1400	-4.768559	-8.682745	90.000000	-0.005527	0.964515	0.022039	29.562699	20.236764	45.000000	45.000000	-43.987234	-5.945413	4.378171	-82.562480	22.052027	67.934454	46.718544	50.097119	-15.647277	29.094662	21.890112	-45.000000	-45.000000	-43.544584	5.909793	-12.259337	-89.999997	18.207298	65.236745	45.692296	-25.178097	-24.999983	
1.1500	-4.790992	-8.644522	90.000000	-0.005281	0.964511	0.021958	29.573571	20.255313	45.000000	45.000000	-43.948289	-5.950211	4.502469	-82.554342	22.142270	68.429691	46.425804	49.871251	-15.882369	29.036707	21.787930	-45.000000	-45.000000	-43.758271	5.877747	-11.550444	-89.999994	17.887103	66.022294	45.268292	-25.253399	-24.999970	
1.1600	-4.796330	-8.602368	90.000000	-0.005056	0.964535	0.021890	29.592410	20.287487	45.000000	45.000000	-43.880749	-5.959071	4.690723	-82.542898	22.293528	68.988527	46.071632	49.565985	-16.127929	28.971148	21.672604	-45.000000	-45.000000	-43.999629	5.841893	-10.690917	-89.999989	17.413203	66.885392	44.690959	-25.263020	-24.999946	
1.1700	-4.785351	-8.551568	90.000000	-0.004865	0.964599	0.021843	29.619057	20.333171	45.000000	45.000000	-43.784898	-5.972231	4.967774	-82.522291	22.551728	69.615559	45.636590	49.129731	-16.366640	28.896989	21.542614	-45.000000	-45.000000	-44.271986	5.801695	-9.579673	-89.999981	16.685044	67.805108	43.886209	-25.128139	-24.999904	
1.1800	-4.754594	-8.498699	90.000000	-0.004681	0.964687	0.021808	29.653786	20.392886	45.000000	45.000000	-43.659658	-5.989725	5.325928	-82.494288	22.876011	70.315449	45.155843	48.608025	-16.550813	28.832203	21.429213	-45.000000	-45.000000	-44.509706	5.766561	-8.332261	-89.999965	15.765439	68.762619	42.942244	-24.824852	-24.999828	
1.1900	-4.714272	-8.448464	90.000000	-0.004503	0.964794	0.021790	29.692169	20.459054	45.000000	45.000000	-43.520929	-6.009230	5.757225	-82.440197	23.262621	71.081998	44.623385	47.992913	-16.670041	28.769026	21.318699	-45.000000	-45.000000	-44.741414	5.732360	-6.937720	-89.999938	14.695503	69.763006	41.877390	-24.343614	-24.999693	
1.2000	-4.665973	-8.409070	90.000000	-0.004311	0.964919	0.021772	29.728561	20.521881	45.000000	45.000000	-43.389239	-6.027697	6.266293	-82.348073	23.675476	71.914152	44.044721	47.295760	-16.645568	28.728993	21.248564	-45.000000	-45.000000	-44.888457	5.710174	-5.525080	-89.999889	13.550063	70.785315	40.775518	-23.604789	-24.999449	
1.2100	-4.616804	-8.383866	90.000000	-0.004102	0.965055	0.021753	29.762259	20.580199	45.000000	45.000000	-43.267019	-6.044842	6.845046	-82.199563	24.121784	72.793888	43.422788	46.514385	-16.472321	28.706994	21.210179	-45.000000	-45.000000	-44.969002	5.697565	-4.087165	-89.999801	12.350706	71.828109	39.646048	-22.619367	-24.999014	
1.2200	-4.562999	-8.372657	90.000000	-0.003869	0.965177	0.021729	29.790756	20.629695	45.000000	45.000000	-43.163417	-6.059351	7.533139	-82.001879	24.620907	73.740485	42.727206	45.601881	-16.086692	28.702369	21.202124	-45.000000	-45.000000	-44.985910	5.694283	-2.607341	-89.999643	11.083111	72.892899	38.492006	-21.299922	-24.998234	
1.2300	-4.513326	-8.379457	90.000000	-0.003600	0.965264	0.021698	29.816246	20.674195	45.000000	45.000000	-43.070415	-6.072298	8.288455	-81.738469	25.159282	74.725621	41.988177	44.597905	-15.550358	28.698436	21.195403	-45.000000	-45.000000	-45.000000	5.691676	-1.062786	-89.999361	9.783321	73.989219	37.343290	-19.787093	-24.996837	
